# Blender v2.67 (sub 0) OBJ File: 'untitled.blend'
# www.blender.org
o Hand_Cube.002
v -1.086411 -0.468009 2.970587
v -1.086411 -0.468009 1.010587
v -0.586409 -0.468009 1.010587
v -0.586409 -0.468009 2.970587
v -1.086411 0.031992 2.970587
v -1.086411 0.031992 1.010587
v -0.586409 0.031992 1.010587
v -0.586409 0.031992 2.970587
v -1.086411 0.031992 2.970587
v -1.086411 0.031992 2.970587
v -1.086411 0.031992 1.010587
v -1.086411 0.031992 1.010587
v -1.086411 -0.468009 1.010587
v -1.086411 -0.468009 1.010587
v -1.086411 -0.468009 2.970587
v -1.086411 -0.468009 2.970587
v -0.586409 0.031992 1.010587
v -0.586409 0.031992 1.010587
v -0.586409 -0.468009 1.010587
v -0.586409 -0.468009 1.010587
v -0.586409 0.031992 2.970587
v -0.586409 0.031992 2.970587
v -0.586409 -0.468009 2.970587
v -0.586409 -0.468009 2.970587
vt 0.000000 0.000000
vt 1.000000 0.000000
vt 0.000000 1.000000
vt 1.000000 1.000000
vn -1.000000 0.000000 0.000000
vn 0.000000 0.000000 -1.000000
vn 1.000000 0.000000 0.000000
vn 0.000000 0.000000 1.000000
vn 0.000000 -1.000000 0.000000
vn 0.000000 1.000000 0.000000
s 1
f 5/1/1 6/2/1 1/3/1
f 11/1/2 7/2/2 3/4/2
f 17/1/3 8/2/3 4/4/3
f 21/1/4 9/2/4 15/4/4
f 16/1/5 14/2/5 20/4/5
f 22/1/6 18/2/6 12/4/6
f 6/2/1 2/4/1 1/3/1
f 13/3/2 11/1/2 3/4/2
f 19/3/3 17/1/3 4/4/3
f 23/3/4 21/1/4 15/4/4
f 24/3/5 16/1/5 20/4/5
f 10/3/6 22/1/6 12/4/6
