# Blender v2.67 (sub 0) OBJ File: ''
# www.blender.org
o Cylinder
v 0.013698 0.683020 0.461643
v 0.013698 -0.240266 0.461643
v -0.312733 0.683020 0.326431
v -0.312733 -0.240266 0.326431
v -0.447945 0.683020 -0.000000
v -0.447945 -0.240266 -0.000000
v -0.312733 0.683020 -0.326431
v -0.312733 -0.240266 -0.326431
v 0.013698 0.683020 -0.461643
v 0.013698 -0.240266 -0.461643
v 0.340130 0.683020 -0.326431
v 0.340130 -0.240266 -0.326431
v 0.475342 0.683020 0.000000
v 0.475342 -0.240266 0.000000
v 0.340130 0.683020 0.326431
v 0.340130 -0.240266 0.326431
vn 0.382683 0.000000 -0.923880
vn 0.923880 0.000000 -0.382683
vn 0.923880 -0.000000 0.382684
vn 0.382683 -0.000000 0.923880
vn -0.382683 0.000000 0.923880
vn -0.923880 0.000000 0.382683
vn 0.000000 1.000000 -0.000000
vn -0.382683 0.000000 -0.923880
vn -0.923880 0.000000 -0.382683
vn 0.000000 -1.000000 0.000000
s off
f 1//1 2//1 4//1
f 3//2 4//2 6//2
f 5//3 6//3 8//3
f 7//4 8//4 10//4
f 9//5 10//5 11//5
f 11//6 12//6 13//6
f 4//7 2//7 6//7
f 15//8 16//8 1//8
f 13//9 14//9 15//9
f 1//10 3//10 15//10
f 3//1 1//1 4//1
f 5//2 3//2 6//2
f 7//3 5//3 8//3
f 9//4 7//4 10//4
f 10//5 12//5 11//5
f 12//6 14//6 13//6
f 2//7 16//7 6//7
f 16//7 14//7 6//7
f 14//7 12//7 6//7
f 12//7 10//7 8//7
f 6//7 12//7 8//7
f 16//8 2//8 1//8
f 14//9 16//9 15//9
f 3//10 5//10 15//10
f 5//10 7//10 15//10
f 7//10 9//10 15//10
f 9//10 11//10 13//10
f 15//10 9//10 13//10
